<svg xmlns="http://www.w3.org/2000/svg" width="158" height="158" viewBox="0 0 158 158">
    <defs>
        <filter id="a" width="154.5%" height="154.5%" x="-27.3%" y="-27.3%" filterUnits="objectBoundingBox">
            <feGaussianBlur in="SourceGraphic" stdDeviation="10"/>
        </filter>
    </defs>
    <g fill="none" fill-rule="evenodd" transform="translate(24 24)">
        <circle cx="55" cy="55" r="55" fill="#FFE5E5" filter="url(#a)"/>
        <path fill="#000" fill-rule="nonzero" d="M76 24.362c-16.598 0-30 13.981-30 29 0 5.85 1.276 17.967 14.5 26.375l7.219 12.375c-2.458.443-4.72 1.052-6.656 1.875-1.979.84-3.638 1.881-4.907 3.156-1.269 1.276-2.156 2.91-2.156 4.72 0 1.809.887 3.443 2.156 4.718 1.27 1.275 2.928 2.284 4.907 3.125 3.956 1.681 9.184 2.656 14.937 2.656s10.981-.975 14.938-2.656c1.978-.84 3.637-1.85 4.906-3.125 1.269-1.275 2.156-2.91 2.156-4.719 0-1.81-.887-3.443-2.156-4.719-1.27-1.275-2.928-2.315-4.906-3.156-1.937-.823-4.199-1.432-6.657-1.875L91.5 79.737C104.724 71.33 106 59.212 106 53.362c0-15.019-13.402-29-30-29zm0 4c14.322 0 26 12.403 26 25 0 5.451-.74 15.699-13.063 23.281a2 2 0 0 0-.656.688L76 98.393 63.719 77.331a2 2 0 0 0-.657-.688C50.74 69.061 50 58.813 50 53.363c0-12.598 11.678-25 26-25zm0 9c-9.354 0-16.969 7.639-16.969 17S66.646 71.331 76 71.331c9.354 0 17-7.601 17-16.969 0-9.367-7.646-17-17-17zm0 4c7.196 0 13 5.798 13 13 0 7.203-5.804 12.969-13 12.969a12.918 12.918 0 0 1-12.969-12.969c0-7.209 5.773-13 12.969-13zm-6.125 54.469l4.406 7.531a2 2 0 0 0 3.438 0l4.406-7.531c2.802.39 5.3 1.015 7.25 1.844 1.641.697 2.87 1.522 3.625 2.28.755.76 1 1.37 1 1.907 0 .538-.245 1.116-1 1.875-.755.759-1.984 1.584-3.625 2.281-3.282 1.395-8.082 2.344-13.375 2.344-5.293 0-10.093-.949-13.375-2.344-1.641-.697-2.87-1.522-3.625-2.28-.755-.76-1-1.338-1-1.876 0-.538.245-1.147 1-1.906.755-.759 1.984-1.584 3.625-2.281 1.95-.829 4.448-1.454 7.25-1.844z"/>
    </g>
</svg>
