<svg xmlns="http://www.w3.org/2000/svg" width="158" height="158" viewBox="0 0 158 158">
    <defs>
        <filter id="a" width="154.5%" height="154.5%" x="-27.3%" y="-27.3%" filterUnits="objectBoundingBox">
            <feGaussianBlur in="SourceGraphic" stdDeviation="10"/>
        </filter>
    </defs>
    <g fill="none" fill-rule="evenodd" transform="translate(24 24)">
        <circle cx="55" cy="55" r="55" fill="#FFE5E5" filter="url(#a)"/>
        <path fill="#000" fill-rule="nonzero" d="M36 33.362c0 .943.952 2 2 2h10c1.619 0 2.325.422 2.625 1.5l9.406 50.844c.16.918 1.037 1.655 1.969 1.656h50c1.057.015 2.028-.943 2.028-2s-.971-2.015-2.028-2H63.656l-1.468-8h15.437c.267.056.545.056.813 0h18.187c.267.056.545.056.813 0H108c2.461 0 4.621-.195 6.5-1.375 1.879-1.18 3.068-3.222 3.813-6v-.062l5.624-24.125a2.04 2.04 0 0 0 .063-.438c0-1.022-.958-1.992-2-2H97.375a2.004 2.004 0 0 0-.594-.031 1.988 1.988 0 0 0-.187.031H78.375a2.004 2.004 0 0 0-.594-.031 1.988 1.988 0 0 0-.187.031H55.906l-1.375-7.406a2.002 2.002 0 0 0-.062-.156c-.804-2.885-3.649-4.438-6.469-4.438H38c-1.15 0-2 1.057-2 2zm20.625 14H76v11H58.656l-2.031-11zm23.375 0h15v11H80v-11zm19 0h20.5l-2.594 11H99v-11zm-39.594 15H76v11H61.437l-2.03-11zm20.594 0h15v11H80v-11zm19 0h16.969l-1.531 6.594c-.61 2.276-1.265 3.155-2.063 3.656-.798.501-2.151.75-4.375.75h-9v-11zm-27 31c-4.395 0-8 3.606-8 8 0 4.395 3.605 8 8 8s8-3.605 8-8c0-4.394-3.605-8-8-8zm32 0c-4.395 0-8 3.606-8 8 0 4.395 3.605 8 8 8s8-3.605 8-8c0-4.394-3.605-8-8-8zm-32 4c2.233 0 4 1.767 4 4s-1.767 4-4 4a3.97 3.97 0 0 1-4-4c0-2.233 1.767-4 4-4zm32 0c2.233 0 4 1.767 4 4s-1.767 4-4 4a3.97 3.97 0 0 1-4-4c0-2.233 1.767-4 4-4z"/>
    </g>
</svg>
