<?xml version="1.0" encoding="UTF-8"?>
<svg width="158px" height="158px" viewBox="0 0 158 158" version="1.1" xmlns="http://www.w3.org/2000/svg" xmlns:xlink="http://www.w3.org/1999/xlink">
    <!-- Generator: Sketch 47.1 (45422) - http://www.bohemiancoding.com/sketch -->
    <title>Group 10</title>
    <desc>Created with Sketch.</desc>
    <defs>
        <filter x="-27.3%" y="-27.3%" width="154.5%" height="154.5%" filterUnits="objectBoundingBox" id="filter-1">
            <feGaussianBlur stdDeviation="10" in="SourceGraphic"></feGaussianBlur>
        </filter>
    </defs>
    <g id="Page-1" stroke="none" stroke-width="1" fill="none" fill-rule="evenodd">
        <g id="radar" transform="translate(-251.000000, -901.000000)">
            <g id="Group-10" transform="translate(266.000000, 925.000000)">
                <circle id="Oval-2" fill="#D3F3FB" filter="url(#filter-1)" cx="64" cy="55" r="55"></circle>
                <g id="Group" transform="translate(0.000000, 17.000000)" fill-rule="nonzero" fill="#000000">
                    <path d="M35.1646061,58.4385455 L42.0709545,51.532197 C44.0826061,52.3842879 46.4927273,51.9982273 48.1321061,50.3588485 C50.2899091,48.2010455 50.2899091,44.7044394 48.1321061,42.5466364 C45.974303,40.3888333 42.477697,40.3888333 40.3198939,42.5466364 C38.6805152,44.1860152 38.2944545,46.5961364 39.1465455,48.6077879 L32.2415758,55.5127576 L12.5276667,35.782303 C12.1553939,35.4086515 11.6411061,35.2087273 11.1157879,35.2087273 C10.5890909,35.2087273 10.074803,35.4265758 9.70390909,35.7988485 C3.70756061,41.795197 0.405363636,49.8169848 0.405363636,58.3875303 C0.405363636,66.9580758 3.70893939,74.9798636 9.70390909,80.9762121 C15.6988788,86.9725606 23.7220455,90.2733788 32.2925909,90.2733788 C40.8631364,90.2733788 48.8849242,86.9711818 54.8812727,80.9762121 C55.6561515,80.2013333 55.6561515,78.9452576 54.8812727,78.1703788 L35.1646061,58.4385455 Z M32.2912121,86.3052273 C24.7809545,86.3052273 17.7546515,83.4166667 12.5083636,78.1703788 C7.26069697,72.9240909 4.37351515,65.8991667 4.37351515,58.3875303 C4.37351515,51.5418485 6.77260606,45.0987727 11.1709394,40.0386212 L30.8876061,59.7883788 C30.8876061,59.7897576 30.8889848,59.7883788 30.8889848,59.7883788 L50.6208182,79.5215909 C45.564803,83.9116515 39.1286212,86.3052273 32.2912121,86.3052273 Z" id="Shape"></path>
                    <path d="M89.7852879,38.8721667 C89.3371818,37.8670303 88.2424242,37.3789394 87.3420758,37.7801667 L87.1559394,37.8628939 L87.1600758,37.8739242 C81.1402879,40.3309242 74.2187727,40.605303 67.6764242,38.1138333 L67.677803,38.109697 C65.3090455,37.2038333 63.0698939,35.9587879 61.0361818,34.4117879 C60.8431515,34.2642576 60.6652879,34.1001818 60.4777727,33.9471364 C60.040697,33.5955455 59.6063788,33.241197 59.1913636,32.8606515 C58.8218485,32.5200909 58.4757727,32.1588485 58.1283182,31.8003636 C57.9215,31.5880303 57.7091667,31.3825909 57.5092424,31.1633636 C57.1080152,30.7193939 56.7302273,30.2588788 56.3607121,29.7900909 C56.2352424,29.6315303 56.1056364,29.4771061 55.9829242,29.3157879 C55.6065152,28.8166667 55.2535455,28.3037576 54.9143636,27.781197 C54.8109545,27.6226364 54.7075455,27.4654545 54.6082727,27.3041364 C54.2842576,26.7829545 53.9795455,26.2493636 53.6927576,25.7075 C53.4142424,25.1794242 53.1260758,24.6596212 52.8792727,24.1067273 C49.9203939,17.4747576 49.9300455,10.2774848 52.2960455,3.96539394 L52.2919091,3.96401515 L52.3470606,3.81786364 C52.7000303,2.89683333 52.1526515,1.8310303 51.1254545,1.43669697 C50.0996364,1.04374242 48.9786818,1.47116667 48.6270909,2.39219697 L48.5553939,2.5824697 L48.5691818,2.58798485 C45.8612424,9.84178788 45.8571061,18.109 49.2544394,25.7240455 C51.0206667,29.6825455 53.534197,33.0771212 56.5496061,35.827803 C56.5551212,35.8319394 56.5606364,35.8374545 56.5661515,35.8415909 C57.2293485,36.4455 57.9118485,37.0204545 58.6219242,37.5609394 C58.7239545,37.6395303 58.8315,37.7112273 58.9349091,37.7884394 C59.5181364,38.22 60.1137727,38.6322576 60.723197,39.0210758 C60.9548333,39.1686061 61.1892273,39.312 61.4263788,39.4540152 C61.9806515,39.786303 62.5445758,40.1006667 63.1167727,40.3971061 C63.3883939,40.5377424 63.6613939,40.6742424 63.9385303,40.8079848 C64.5713939,41.1113182 65.2139091,41.3925909 65.864697,41.6531818 C65.9846515,41.7000606 66.0949545,41.7607273 66.2162879,41.8076061 C73.801,44.7113333 81.8379545,44.3790455 88.8091061,41.4987576 L88.8063485,41.4932424 L88.9676667,41.4215455 C89.8666364,41.0175606 90.2333939,39.8759242 89.7852879,38.8721667 Z" id="Shape"></path>
                    <path d="M57.8208485,23.5524545 L57.8056818,23.5593485 C57.8456667,23.6351818 57.895303,23.7068788 57.9366667,23.7827121 C58.1338333,24.1439545 58.3434091,24.4927879 58.5585,24.8388636 C58.6977576,25.0636061 58.8397727,25.2869697 58.9886818,25.506197 C59.2203182,25.8495152 59.4574697,26.1859394 59.7056515,26.5140909 C59.8738636,26.7360758 60.0489697,26.9511667 60.2254545,27.1662576 C60.4695,27.462697 60.7135455,27.7591364 60.97,28.0404091 C61.2030152,28.2968636 61.4498182,28.5409091 61.6966212,28.7877121 C61.9172273,29.0069394 62.1323182,29.2316818 62.3598182,29.4398788 C62.7224394,29.7735455 63.1057424,30.0879091 63.4931818,30.3981364 C63.6255455,30.5029242 63.7496364,30.6173636 63.8833788,30.7193939 C65.4979394,31.9506515 67.3069091,32.9806061 69.2978788,33.7430758 C74.6599848,35.7960909 80.3364545,35.5947879 85.286303,33.6120909 L85.2738939,33.5845152 L85.3938485,33.5307424 C86.294197,33.1281364 86.6650909,31.9975303 86.2238788,31.0075606 C85.7812879,30.0162121 84.6920455,29.5377727 83.791697,29.9403788 L83.6717424,29.9927727 L83.6689848,29.9858788 C79.6608485,31.550803 75.0874091,31.6955758 70.7593939,30.049303 C69.1641364,29.4385 67.6557424,28.600197 66.2852273,27.5592121 C66.2204242,27.5095758 66.1597576,27.455803 66.0949545,27.4061667 C65.7254394,27.118 65.3655758,26.8160455 65.0181212,26.4975455 C64.9078182,26.3968939 64.8030303,26.2907273 64.6954848,26.1859394 C64.4073182,25.908803 64.1260455,25.6206364 63.855803,25.3228182 C63.7303333,25.1835606 63.6076212,25.0429242 63.4876667,24.9009091 C63.2436212,24.6141212 63.0092273,24.3190606 62.7831061,24.0157273 C62.6686667,23.8626818 62.5542273,23.7110152 62.445303,23.5552121 C62.2040152,23.2091364 61.9765152,22.8520303 61.7572879,22.4866515 C61.6883485,22.3722121 61.6138939,22.2591515 61.5477121,22.1433333 C61.2636818,21.6428333 60.9975758,21.1271667 60.7590455,20.5908182 C58.7708333,16.1345758 58.766697,11.2977879 60.3385152,7.04698485 L60.3274848,7.04284848 L60.3674697,6.93943939 C60.7204394,6.01840909 60.1840909,4.95674242 59.1706818,4.56792424 C58.1586515,4.18048485 57.0487273,4.61204545 56.6957576,5.53307576 L56.6571515,5.63648485 L56.6378485,5.62959091 C54.7020303,10.829 54.7006515,16.7522727 57.1355909,22.2081364 C57.3437879,22.6714091 57.5864545,23.1098636 57.8208485,23.5524545 Z" id="Shape"></path>
                    <path d="M67.0063333,21.5352879 C67.0587273,21.6000909 67.1069848,21.6662727 67.1607576,21.729697 C67.3234545,21.9213485 67.4944242,22.1033485 67.6653939,22.2839697 C67.7715606,22.3970303 67.8791061,22.5087121 67.9894091,22.6176364 C68.1424545,22.7679242 68.2982576,22.912697 68.458197,23.0533333 C68.6098636,23.1884545 68.7656667,23.3180606 68.9242273,23.4462879 C69.0634848,23.5579697 69.2013636,23.6696515 69.3447576,23.7758182 C69.5446818,23.9247273 69.7515,24.0626061 69.959697,24.2004848 C70.0796515,24.2790758 70.1954697,24.3604242 70.316803,24.4348788 C70.5691212,24.589303 70.8297121,24.7299394 71.0944394,24.8678182 C71.1868182,24.9160758 71.2750606,24.9698485 71.3674394,25.0153485 C71.7093788,25.1835606 72.0595909,25.3379848 72.4222121,25.4772424 C72.4428939,25.4855152 72.4635758,25.4965455 72.4842576,25.5048182 L72.4856364,25.5020606 C75.5520606,26.6685152 78.7853182,26.598197 81.6449242,25.5475606 L81.646303,25.5489394 L81.6642273,25.5406667 C81.6711212,25.5379091 81.6780152,25.5365303 81.6849091,25.5337727 L81.6835303,25.5323939 L81.8310606,25.4662121 C82.7314091,25.0636061 83.0981667,23.9233485 82.6500606,22.9195909 C82.2019545,21.9144545 81.107197,21.4249848 80.2068485,21.8275909 L80.0220909,21.9089394 C78.0848939,22.5542121 75.9270909,22.5707576 73.8754545,21.7862273 C73.456303,21.6262879 73.0619697,21.4305 72.6814242,21.2167879 C72.6193788,21.1823182 72.5573333,21.1506061 72.4966667,21.1133788 C72.1299091,20.8969091 71.7824545,20.657 71.4570606,20.3964091 C71.4101818,20.3591818 71.3660606,20.3178182 71.3191818,20.2805909 C70.9965455,20.0117273 70.6904545,19.727697 70.4105606,19.4202273 C70.4022879,19.4119545 70.3940152,19.4036818 70.3857424,19.3954091 C70.0920606,19.0713939 69.8259545,18.7253182 69.5832879,18.3654545 C69.2909848,17.9325152 69.0262576,17.4747576 68.8056515,16.9825303 C67.8184394,14.7695758 67.8156818,12.3828939 68.5588485,10.2595606 L68.5657424,10.2623182 L68.6374394,10.0720455 C68.9904091,9.15101515 68.4430303,8.08521212 67.4158333,7.69087879 C66.3900152,7.29792424 65.2690606,7.72534848 64.9174697,8.64637879 L64.8664545,8.77874242 L64.856803,8.77460606 C63.7275758,11.8603333 63.7386061,15.3665909 65.1808182,18.5998485 C65.6675303,19.6849545 66.2907424,20.6583788 67.0063333,21.5352879 Z" id="Shape"></path>
                </g>
            </g>
        </g>
    </g>
</svg>