<svg xmlns="http://www.w3.org/2000/svg" width="158" height="158" viewBox="0 0 158 158">
    <defs>
        <filter id="a" width="154.5%" height="154.5%" x="-27.3%" y="-27.3%" filterUnits="objectBoundingBox">
            <feGaussianBlur in="SourceGraphic" stdDeviation="10"/>
        </filter>
    </defs>
    <g fill="none" fill-rule="evenodd" transform="translate(12 24)">
        <circle cx="67" cy="55" r="55" fill="#D3F3FB" filter="url(#a)"/>
        <path fill="#000" fill-rule="nonzero" d="M7 22.362c-3.843 0-7 3.157-7 7v74c0 3.844 3.157 7 7 7h44c3.843 0 7-3.156 7-7v-74c0-3.843-3.157-7-7-7H7zm0 4h44c1.697 0 3 1.304 3 3v3H4v-3c0-1.696 1.303-3 3-3zm-3 10h50v56H4v-56zm32 16c0 .943.952 2 2 2h5.156l-15.25 15.25-5.593-4.781c-.732-.635-1.94-.62-2.657.031l-11 10c-.782.702-.852 2.055-.147 2.834.706.78 2.058.844 2.835.135l9.687-8.813 5.657 4.844c.754.653 2.01.61 2.718-.094L46 57.175v5.187c-.015 1.057.943 2.029 2 2.029s2.015-.972 2-2.029v-10c0-1.047-.953-2-2-2H38c-1.16 0-2 1.057-2 2zm-32 44h50v7c0 1.697-1.303 3-3 3H7c-1.697 0-3-1.303-3-3v-7zm25 2a3 3 0 1 0 0 6 3 3 0 0 0 0-6z"/>
    </g>
</svg>
