<svg xmlns="http://www.w3.org/2000/svg" width="158" height="158" viewBox="0 0 158 158">
    <defs>
        <filter id="a" width="154.5%" height="154.5%" x="-27.3%" y="-27.3%" filterUnits="objectBoundingBox">
            <feGaussianBlur in="SourceGraphic" stdDeviation="10"/>
        </filter>
    </defs>
    <g fill="none" fill-rule="evenodd" transform="translate(24 24)">
        <circle cx="55" cy="55" r="55" fill="#FFE5E5" filter="url(#a)"/>
        <path fill="#000" fill-rule="nonzero" d="M86 38.362c-6.051 0-11 4.949-11 11 0 6.052 4.949 11 11 11s11-4.948 11-11c0-6.051-4.949-11-11-11zm0 4c3.89 0 7 3.11 7 7s-3.11 7-7 7-7-3.11-7-7 3.11-7 7-7zm-26 2c-5.5 0-10 4.501-10 10 0 5.5 4.5 10 10 10s10-4.5 10-10c0-5.499-4.5-10-10-10zm52 0c-5.5 0-10 4.501-10 10 0 5.5 4.5 10 10 10s10-4.5 10-10c0-5.499-4.5-10-10-10zm-52 4c3.337 0 6 2.663 6 6 0 3.338-2.663 6-6 6a5.97 5.97 0 0 1-6-6c0-3.337 2.663-6 6-6zm52 0c3.337 0 6 2.663 6 6 0 3.338-2.663 6-6 6a5.97 5.97 0 0 1-6-6c0-3.337 2.663-6 6-6zm-26 16c-5.63 0-10.715 1.531-14.5 3.844a20.044 20.044 0 0 0-2.438 1.75A26.335 26.335 0 0 0 60 68.362c-5.087 0-9.464 1.426-12.656 3.594C44.15 74.124 42 77.089 42 80.362v6c0 1.047.953 2 2 2h21v4c0 1.047.953 2 2 2h38c1.047 0 2-.953 2-2v-4h21c1.047 0 2-.953 2-2v-6c0-3.273-2.151-6.238-5.344-8.406-3.192-2.168-7.57-3.594-12.656-3.594-3.284 0-6.377.604-9.063 1.594a20.049 20.049 0 0 0-2.437-1.75c-3.785-2.313-8.87-3.844-14.5-3.844zm0 4c4.897 0 9.323 1.366 12.406 3.25 2.186 1.346 4.105 3.143 4.594 5.75v13H69v-13c.49-2.607 2.408-4.404 4.594-5.75 3.083-1.884 7.51-3.25 12.406-3.25zm-26 4c2.21 0 4.23.449 6.125 1-.764 1.365-1.125 2.474-1.125 4v7H46v-4c0-1.392 1.14-3.428 3.594-5.094 2.453-1.665 6.075-2.906 10.406-2.906zm52 0c4.331 0 7.953 1.24 10.406 2.906C124.86 76.934 126 78.97 126 80.362v4h-19v-7c0-1.526-.361-2.635-1.125-4 1.895-.551 3.915-1 6.125-1z"/>
    </g>
</svg>
